<?xml version="1.0" encoding="utf-8"?>
<!-- Generator: Adobe Illustrator 16.0.3, SVG Export Plug-In . SVG Version: 6.00 Build 0)  -->
<!DOCTYPE svg PUBLIC "-//W3C//DTD SVG 1.1//EN" "http://www.w3.org/Graphics/SVG/1.1/DTD/svg11.dtd">
<svg version="1.1" id="Layer_1" xmlns="http://www.w3.org/2000/svg" xmlns:xlink="http://www.w3.org/1999/xlink" x="0px" y="0px"
	 width="399.685px" height="399.685px" viewBox="0 0 399.685 399.685" enable-background="new 0 0 399.685 399.685"
	 xml:space="preserve">
<g>
	<path fill-rule="evenodd" clip-rule="evenodd" d="M212.546,37.273c0,0-2.686-6.713-11.413-6.713
		c-8.727,0-12.757,6.714-12.757,6.714L10.607,347.261c0,0-4.49,7.651-0.351,14.813c0,0,4.252,7.05,11.302,7.05
		c7.047,0,354.45,0,354.45,0s9.502,0.274,13.314-7.161c3.182-6.204,1.632-10.989,0.113-13.874L212.546,37.273z"/>
	<polygon fill-rule="evenodd" clip-rule="evenodd" fill="#FFF200" points="200.908,64.013 39.794,344.733 359.226,344.733 	"/>
	<path fill-rule="evenodd" clip-rule="evenodd" d="M173.577,147.395l11.413,108.08c0,0,2.685,13.425,13.874,13.425
		c13.01,0,14.991-13.201,14.991-13.201l11.86-108.529c0,0-1.457-26.179-25.957-26.179
		C173.598,120.99,173.577,147.396,173.577,147.395z"/>
	<circle fill-rule="evenodd" clip-rule="evenodd" cx="200.093" cy="308.844" r="25.791"/>
</g>
</svg>
